# xmcd CD database file
#
# Track frame offsets:
#	182
#	21377
#	42950
#	62702
#	78555
#	81362
#	98150
#	105542
#	124002
#	140020
#	142977
#	165610
#	181090
#	203020
#	221052
#	240712
#
# Disc length: 3566 seconds
#
# Revision: 3
# Processed by: cddbd v1.5.1PL2 Copyright (c) Steve Scherf et al.
# Submitted via: CDex 1.51
#
DISCID=df0dec10
DTITLE=Dred Scott - Breakin' Combs
DYEAR=1993
DGENRE=Hip-Hop
TTITLE0=Back In The Day
TTITLE1=Duck Ya Head
TTITLE2=Can't Hold It Back
TTITLE3=Check The Vibe
TTITLE4=Dirty Old Man Skit
TTITLE5=The Story
TTITLE6=To Da Old School
TTITLE7=Funky Rythms
TTITLE8=Swingin' From The Tree
TTITLE9=Intro
TTITLE10=Nutin' Ta Lose
TTITLE11=Liar
TTITLE12=Rough E Nuff
TTITLE13=My Mind Is Driftin'
TTITLE14=They Don't Know
TTITLE15=Frankie's Groove
EXTD=Entered By Slice!! In Detroit YEAR: 1993
EXTT0=
EXTT1=
EXTT2=
EXTT3=
EXTT4=
EXTT5=
EXTT6=
EXTT7=
EXTT8=
EXTT9=
EXTT10=
EXTT11=
EXTT12=
EXTT13=
EXTT14=
EXTT15=
PLAYORDER=
